/* XPM */
static char * angel_xpm[] = {
"64 64 112 2",
"  	c None",
". 	c #FFFFBE",
"+ 	c #FFFFFF",
"@ 	c #080000",
"# 	c #CF9C9B",
"$ 	c #E3C6C5",
"% 	c #B97371",
"& 	c #DCE7F8",
"* 	c #ACBEDB",
"= 	c #130C04",
"- 	c #ADBFDB",
"; 	c #DDE7F7",
"> 	c #252010",
", 	c #292512",
"' 	c #D09E9B",
") 	c #E3C7C5",
"! 	c #D09D9B",
"~ 	c #201B0C",
"{ 	c #DCE7F7",
"] 	c #302C17",
"^ 	c #B1C1D9",
"/ 	c #464225",
"( 	c #D2A29B",
"_ 	c #E4C8C4",
": 	c #2D2915",
"< 	c #D1A19B",
"[ 	c #3F3B21",
"} 	c #B0C0D9",
"| 	c #DDE8F5",
"1 	c #DFE8F3",
"2 	c #E0E9F0",
"3 	c #E1E9EE",
"4 	c #6C683E",
"5 	c #67633A",
"6 	c #5B5732",
"7 	c #4A4628",
"8 	c #343019",
"9 	c #3C381F",
"0 	c #4E4A2B",
"a 	c #635E37",
"b 	c #E0E9EF",
"c 	c #E0E9F1",
"d 	c #DEE8F3",
"e 	c #DDE8F6",
"f 	c #BAC7D3",
"g 	c #C2CCCF",
"h 	c #C8D0CB",
"i 	c #CBD2CA",
"j 	c #918C55",
"k 	c #7F7B49",
"l 	c #E3C7C4",
"m 	c #575330",
"n 	c #706C40",
"o 	c #837E4B",
"p 	c #C6CFCC",
"q 	c #C6CFCD",
"r 	c #BBC8D3",
"s 	c #DFE8F2",
"t 	c #ADBFDA",
"u 	c #B2C1D8",
"v 	c #B9C6D4",
"w 	c #C4CDCE",
"x 	c #A5A061",
"y 	c #BBB56E",
"z 	c #C2BB73",
"A 	c #BAB46E",
"B 	c #A49E60",
"C 	c #85804D",
"D 	c #E5C9C3",
"E 	c #54502E",
"F 	c #736E42",
"G 	c #928D55",
"H 	c #ABA564",
"I 	c #B7B16C",
"J 	c #B5AF6B",
"K 	c #A6A062",
"L 	c #BCC8D3",
"M 	c #B4C3D7",
"N 	c #1A1508",
"O 	c #504C2C",
"P 	c #767244",
"Q 	c #9E995D",
"R 	c #C2BC73",
"S 	c #DBD483",
"T 	c #E4DD88",
"U 	c #DBD482",
"V 	c #C1BB73",
"W 	c #9D985C",
"X 	c #757143",
"Y 	c #D3A59B",
"Z 	c #E4C7C4",
"` 	c #D2A39B",
" .	c #666139",
"..	c #8C8751",
"+.	c #B0AB68",
"@.	c #CDC67A",
"#.	c #D9D281",
"$.	c #C7C176",
"%.	c #A9A364",
"&.	c #847F4C",
"*.	c #5E5A35",
"=.	c #39361D",
"-.	c #827D4B",
";.	c #ADA766",
">.	c #FFF799",
",.	c #807C4A",
"'.	c #56522F",
").	c #4C4829",
"!.	c #726D41",
"~.	c #BBB56F",
"{.	c #938E56",
"].	c #68643B",
"                                                                                                                                ",
"                                                                                                                                ",
"                                                                                                                                ",
"                                                  . . + + + + + + + + + + . .                                                   ",
"                                            . + + + + + + + + + + + + + + + + + + .                                             ",
"                                        . + + + + + + + . .         . . + + + + + + + .                                         ",
"                                      + + + + + . .                         . . + + + + +                                       ",
"                                    + + + + .                                     . + + + +                                     ",
"                                  + + + . .                                         . . + + +                                   ",
"                                  + + . .                                             . . + +                                   ",
"                                  + + . .                                             . . + +                                   ",
"                                  + + + . .                                         . . + + +                                   ",
"                                    + + + + .                                     . + + + +                                     ",
"                                      + + + + + . .                         . . + + + + +                                       ",
"                                        . + + + + + + + . .         . . + + + + + + + .                                         ",
"                                            . + + + + + + + + + + + + + + + + + + .                                             ",
"                                                  . . + + + + + + + + + + . .                                                   ",
"                                                                                                                                ",
"                                                                                                                                ",
"                                                                                                                                ",
"                                                                                                                                ",
"                                                                                                                                ",
"                                                        @ @ @ @ @ @ @ @                                                         ",
"                                                    @ @ @ @ @ @ @ @ @ @ @ @                                                     ",
"                                                @ @ @ @ # # # # # # # # @ @ @ @                                                 ",
"                                              @ @ @ # $ $ $ $ $ $ $ $ $ $ # @ @ @                                               ",
"                                            @ @ # $ $ $ $ $ $ $ $ $ $ $ $ $ $ # @ @                                             ",
"                                          @ @ # $ $ $ $ $ $ $ $ $ $ $ $ $ $ $ $ # @ @                                           ",
"                                        @ @ # $ $ $ $ $ $ $ $ $ $ $ $ $ $ $ $ $ $ # @ @                                         ",
"                                        @ @ $ $ $ $ $ $ $ $ $ $ $ $ $ $ $ $ $ $ $ $ @ @                                         ",
"                                      @ @ # $ $ $ $ $ $ $ $ $ $ $ $ $ $ $ $ $ $ $ $ # @ @                                       ",
"                                      @ @ $ $ $ $ $ $ $ $ $ $ $ $ $ $ $ $ $ $ $ $ $ $ @ @                                       ",
"                                    @ @ # $ $ $ $ $ $ $ $ $ $ $ $ $ $ $ $ $ $ $ $ $ $ # @ @                                     ",
"                                    @ @ # $ $ $ $ $ $ $ $ $ $ $ $ $ $ $ $ $ $ $ $ $ $ # @ @                                     ",
"                                  @ @ @ # $ $ $ $ $ $ $ $ $ $ $ $ $ $ $ $ $ $ $ $ $ $ # @ @ @                                   ",
"                            @ @ @ @ @ @ # $ $ $ $ $ $ $ $ $ $ $ $ $ $ $ $ $ $ $ $ $ $ # @ @ @ @ @ @                             ",
"                          @ @ @ @ @ @ @ % # $ $ $ $ $ $ $ $ $ $ $ $ $ $ $ $ $ $ $ $ # % @ @ @ @ @ @ @                           ",
"                        @ @ & & @ @ & @ @ # $ $ $ $ $ $ $ $ $ $ $ $ $ $ $ $ $ $ $ $ # @ @ & @ @ & & @ @                         ",
"                      @ @ & & + & @ * @ @ % # $ $ $ $ $ $ $ $ $ $ $ $ $ $ $ $ $ $ # % @ @ * @ & + & & @ @                       ",
"                      @ @ * & & + & @ * @ @ # $ $ $ $ $ $ $ $ $ $ $ $ $ $ $ $ $ $ # @ @ * @ & + & & * @ @                       ",
"                        @ @ & & & + + @ @ @ % # $ $ $ $ $ $ $ $ $ $ $ $ $ $ $ $ # % @ @ @ + + & & & @ @                         ",
"                        @ @ * & & & + + @ @ @ % # $ $ $ $ $ $ $ $ $ $ $ $ $ $ # % @ @ @ + + & & & * @ @                         ",
"                          @ @ * * & & + + + @ @ % # # $ $ $ $ $ $ $ $ $ $ # # % @ @ + + + & & * * @ @                           ",
"                            @ @ @ * * & & + + @ @ @ % # # $ $ $ $ $ $ # # % @ @ @ + + & & * * @ @ @                             ",
"                          @ @ @ @ @ * * * & & + @ @ @ @ % # # # # # # % @ @ @ @ + & & * * * @ @ @ @ @                           ",
"                        @ @ & & + + @ @ * * & & @ @ @ @ @ @ @ @ @ @ @ @ @ @ @ @ & & * * @ @ + + & & @ @                         ",
"                        @ @ * * & & + + + + + = @ # # # @ @ @ @ @ @ @ @ # # # @ = + + + + + & & * * @ @                         ",
"                          @ @ @ * * * * - ; > , ' ) $ # # # # # # # # # # $ $ ! ~ > { * * * * * @ @ @                           ",
"                            @ @ @ @ = ~ ] ^ / / ( _ : ~ # # # # # # # # = > _ < [ [ } : ~ = @ @ @ @                             ",
"                              @ @ & ; | 1 2 3 4 5 6 7 8 ) # # # # # # $ : 9 0 6 a b c d | ; & @ @                               ",
"                              @ = - e 1 f g h i j k 5 7 _ # @ @ @ @ $ l [ m n o p q g r s | t = @                               ",
"                                = > u v w x y z A B C a D l # @ @ # ) _ E F G H I J K p L M ] N                                 ",
"                                  ] O P Q R S T U V W X Y Z $ @ @ # Z `  ...+.@.S #.$.%.&.*.=.                                  ",
"                                    m -.;.>.>.>.>.>.  ,.'.8 N @ @ N : ).!.  >.>.>.>.>.~.{.].                                    ",
"                                          >.>.>.>.>.    m ] =     = : ).    >.>.>.>.>.>.                                        ",
"                                          >.>.>.>.>.                        >.>.>.>.>.                                          ",
"                                            >.>.>.                            >.>.>.>.                                          ",
"                                                                                                                                ",
"                                                                                                                                ",
"                                                                                                                                ",
"                                                                                                                                ",
"                                                                                                                                ",
"                                                                                                                                ",
"                                                                                                                                "};
