/* XPM */
static char * angel_xpm[] = {
"64 64 115 2",
"  	c #2A2628",
". 	c #241F21",
"+ 	c #1D191B",
"@ 	c #322E30",
"# 	c #FFFFBE",
"$ 	c #FFFFFF",
"% 	c #080000",
"& 	c #CF9C9B",
"* 	c #E3C6C5",
"= 	c #B97371",
"- 	c #DCE7F8",
"; 	c #ACBEDB",
"> 	c #130C04",
", 	c #ADBFDB",
"' 	c #DDE7F7",
") 	c #252010",
"! 	c #292512",
"~ 	c #D09E9B",
"{ 	c #E3C7C5",
"] 	c #D09D9B",
"^ 	c #201B0C",
"/ 	c #DCE7F7",
"( 	c #302C17",
"_ 	c #B1C1D9",
": 	c #464225",
"< 	c #D2A29B",
"[ 	c #E4C8C4",
"} 	c #2D2915",
"| 	c #D1A19B",
"1 	c #3F3B21",
"2 	c #B0C0D9",
"3 	c #DDE8F5",
"4 	c #DFE8F3",
"5 	c #E0E9F0",
"6 	c #E1E9EE",
"7 	c #6C683E",
"8 	c #67633A",
"9 	c #5B5732",
"0 	c #4A4628",
"a 	c #343019",
"b 	c #3C381F",
"c 	c #4E4A2B",
"d 	c #635E37",
"e 	c #E0E9EF",
"f 	c #E0E9F1",
"g 	c #DEE8F3",
"h 	c #DDE8F6",
"i 	c #BAC7D3",
"j 	c #C2CCCF",
"k 	c #C8D0CB",
"l 	c #CBD2CA",
"m 	c #918C55",
"n 	c #7F7B49",
"o 	c #E3C7C4",
"p 	c #575330",
"q 	c #706C40",
"r 	c #837E4B",
"s 	c #C6CFCC",
"t 	c #C6CFCD",
"u 	c #BBC8D3",
"v 	c #DFE8F2",
"w 	c #ADBFDA",
"x 	c #B2C1D8",
"y 	c #B9C6D4",
"z 	c #C4CDCE",
"A 	c #A5A061",
"B 	c #BBB56E",
"C 	c #C2BB73",
"D 	c #BAB46E",
"E 	c #A49E60",
"F 	c #85804D",
"G 	c #E5C9C3",
"H 	c #54502E",
"I 	c #736E42",
"J 	c #928D55",
"K 	c #ABA564",
"L 	c #B7B16C",
"M 	c #B5AF6B",
"N 	c #A6A062",
"O 	c #BCC8D3",
"P 	c #B4C3D7",
"Q 	c #1A1508",
"R 	c #504C2C",
"S 	c #767244",
"T 	c #9E995D",
"U 	c #C2BC73",
"V 	c #DBD483",
"W 	c #E4DD88",
"X 	c #DBD482",
"Y 	c #C1BB73",
"Z 	c #9D985C",
"` 	c #757143",
" .	c #D3A59B",
"..	c #E4C7C4",
"+.	c #D2A39B",
"@.	c #666139",
"#.	c #8C8751",
"$.	c #B0AB68",
"%.	c #CDC67A",
"&.	c #D9D281",
"*.	c #C7C176",
"=.	c #A9A364",
"-.	c #847F4C",
";.	c #5E5A35",
">.	c #39361D",
",.	c #827D4B",
"'.	c #ADA766",
").	c #FFF799",
"!.	c #807C4A",
"~.	c #56522F",
"{.	c #4C4829",
"].	c #726D41",
"^.	c #BBB56F",
"/.	c #938E56",
"(.	c #68643B",
"    . . . .         .               . . . .               .         . . . .         .               . . . .               .     ",
"    .     .       . .               . . + +       .       .         .     .       . .               . . + +       .       .     ",
". . .     . @           . . + +     + + + + + + .         + + + + + + + + + @           . . . .     + + + + + + .         +     ",
"    .     . @ @ @       + + + + + +   + + + + + + # # $ $ $ $ $ $ $ $ $ $ # # @ @     + + + + +       +   . .   .         + + + ",
"    . . . . . . . .   . . + + + @ + . . . + # $ $ $ $ $ $ $ $ $ $ $ $ $ $ $ $ $ $ # + +   . + + + + @ + . . . + +   @ @   + + . ",
"    +     . .       . . + + + + . . . . # $ $ $ $ $ $ $ # # +       # # $ $ $ $ $ $ $ # . . + + . + + + . . . + + . . . + + +   ",
"  @ +       .     + . + + + + + . . + $ $ $ $ $ # # + + + + +     + + + + + # # $ $ $ $ $ . + + . . + + . . . . + +   + + @     ",
"@ @ +         . . . . . + + + + . . $ $ $ $ # + + + + + + + + + + . . . + + + . . # $ $ $ $ + + + . . + + . + + + + +   @ @ . . ",
". . + + .       + . . . + + + + + $ $ $ # # + + + + + + + + + + + + + . . + . . + + # # $ $ $ + + + . . . . + + + + @ @ @   . . ",
"      + + + + . + . . + + + + + + $ $ # # + + + + + + + + + + + + + + + + + + + . . + # # $ $ + + + + . . + + + + + .         . ",
"      + + + . . + . . + + + + + + $ $ # # + + + + + + + + + + + + + + + + + + + + . . # # $ $ + + + + + . . . + + + +           ",
"  @ @ + + + . + + . . + + + + + + $ $ $ # # + + . . . + + + + + + + + + + + + + + + # # $ $ $ + + + + + + + + . . . + + .     . ",
"@ @   . . . . . . . + + + + + + + + $ $ $ $ # . . + + + + + + + + + + + + + + + + # $ $ $ $ + + + + + + + + + + . . + + +     . ",
". .   . . . . . + + + + + + + + + + + $ $ $ $ $ # # + + + + + + + + + + + + # # $ $ $ $ $ + + + + + + + + + + + + + + + + +   . ",
". .   . . + + + + + + + + + + + + + + + # $ $ $ $ $ $ $ # # + + + + # # $ $ $ $ $ $ $ # + + + + + + + + + + + + + + + + + + + . ",
". + + + + + + + + + + + + + + + + + + + + + # $ $ $ $ $ $ $ $ $ $ $ $ $ $ $ $ $ $ # + + + + + + + + + + + + + + + + + + + +   . ",
". + + + + + + + + + + + + + + + + + . + + + + + + # # $ $ $ $ $ $ $ $ $ $ # # + + + + + + + + + + + + + + + + + + + + +     . . ",
". + + . + + + + + + + + + + + + + + + + + + + + + + + + + + + + + + + + . + + + + + + + + + + + + + + + + + + + + + + +     . . ",
"    + + + + + + . + + + + + + + + + + + + + + + + + + + + + + + + + + . + + + + + + + + + + + + + + + + + + + + + + + + . . + . ",
"    + + + + . + + + + + + + + + + + + + + + + . . + + + + + + + + + + + + + + + + + + + + + + + + + + + + + + . . . . . . . + . ",
"    . + + . . + + + + + + + + + + + + + + + + + . . + + + + + + + + + + + + + + + + + + + + + + + + + + + + + . + + + . . .   . ",
".     . + . . + + + + + + + + + + + + + + + . . . + + + + + + + + + + + + + + + + + + + + + + + + + + + + + + + + + + + + .     ",
".     . + . + + + + + + + + + + + + + + + + + + + + + + % % % % % % % % + + + + + + + + + + + + + + + + + + + + + + . . .       ",
". .   + + + + + + . + + + + + + + + + + + + + + + + % % % % % % % % % % % % + + + + . + + + + + + + + + + + + + + + . . . @ @   ",
".     . . . . + . . + + + + + + + + + + + + + + % % % % & & & & & & & & % % % % . .     + + + + + + + + + + + + + + . . +   . . ",
". . . . . . + + . + + + + + + + + + + + + + + % % % & * * * * * * * * * * & % % % . .   + + + + + + + + . + + + + . . . + . . . ",
". . . + . + + + + + + + + + + + + + + + + + % % & * * * * * * * * * * * * * * & % % + + + + + + . .     . + + + . . . + +     . ",
". . + . . + + + + + + + + + + + + + + + + % % & * * * * * * * * * * * * * * * * & % % + + + + + . . . . + + + + . . . +   . . . ",
".   + . . + + + + + + + + + + + + + . + % % & * * * * * * * * * * * * * * * * * * & % % + + + + . . + + + + + + . + + +   . . . ",
".   + . + + + + + + + + + + + + + + . . % % * * * * * * * * * * * * * * * * * * * * % % + + + + + . + + + + + + + + + +   . . . ",
"    . + + + + + + + + + + + + . + + + % % & * * * * * * * * * * * * * * * * * * * * & % % + + + + + + + + + + + + + + + .       ",
"    . + + + + + + + + + + + + . . + + % % * * * * * * * * * * * * * * * * * * * * * * % % + + + + + + + + + + + + + + + .       ",
"    . + + + + + + + + + + + + + . + % % & * * * * * * * * * * * * * * * * * * * * * * & % % + + + + + + + + + + . . + +   .     ",
"    . + + + + + + + + + + + + + . . % % & * * * * * * * * * * * * * * * * * * * * * * & % % + + + + + + + + + + . . . +   .     ",
". . . + + + + + + + + + + + + + + % % % & * * * * * * * * * * * * * * * * * * * * * * & % % % + + + + + + + + + + + .     +     ",
"    . + + + + + + + + + + + % % % % % % & * * * * * * * * * * * * * * * * * * * * * * & % % % % % % + + + + + + + + + .   + + + ",
"    . + + + + + + + + + + % % % % % % % = & * * * * * * * * * * * * * * * * * * * * & = % % % % % % % + + + + + + + + . . + + . ",
"    + + + + + + + + +   % % - - % % - % % & * * * * * * * * * * * * * * * * * * * * & % % - % % - - % % + + + + + + + . . + +   ",
"  @ + . + + + + + +   % % - - $ - % ; % % = & * * * * * * * * * * * * * * * * * * & = % % ; % - $ - - % % + + + + + . . + @     ",
"@ @ + . . + + + + + . % % ; - - $ - % ; % % & * * * * * * * * * * * * * * * * * * & % % ; % - $ - - ; % % + . . . . .   @ @ . . ",
". . + + . . . + + + . . % % - - - $ $ % % % = & * * * * * * * * * * * * * * * * & = % % % $ $ - - - % % + + + . . . + @ @   . . ",
"      + + + + + + . . + % % ; - - - $ $ % % % = & * * * * * * * * * * * * * * & = % % % $ $ - - - ; % % + + + + + + . .       . ",
"      . + + + + + + + + + % % ; ; - - $ $ $ % % = & & * * * * * * * * * * & & = % % $ $ $ - - ; ; % % + + + + + + + . .         ",
"  @ @   + + + + + + + + + + % % % ; ; - - $ $ % % % = & & * * * * * * & & = % % % $ $ - - ; ; % % % + + + + + + + + . . .     . ",
"@ @     + + + + + + + + + % % % % % ; ; ; - - $ % % % % = & & & & & & = % % % % $ - - ; ; ; % % % % % + + + + + + + + + .     . ",
". .     + + + + + + + + % % - - $ $ % % ; ; - - % % % % % % % % % % % % % % % % - - ; ; % % $ $ - - % % + + + + + + + + . .   . ",
". .   + + + + + + + + + % % ; ; - - $ $ $ $ $ > % & & & % % % % % % % % & & & % > $ $ $ $ $ - - ; ; % % + + + + + + + + .     . ",
". + + + + + + + + + + + + % % % ; ; ; ; , ' ) ! ~ { * & & & & & & & & & & * * ] ^ ) / ; ; ; ; ; % % % + + + . . . + + + .     . ",
". + + + + + + + + + + + + + % % % % > ^ ( _ : : < [ } ^ & & & & & & & & > ) [ | 1 1 2 } ^ > % % % % + + + + + + + + + + +   . . ",
". +   + + + + + + + + + + + + % % - ' 3 4 5 6 7 8 9 0 a { & & & & & & * } b c 9 d e f g 3 ' - % % + + + + + + + + + + + +   . . ",
"      + + + + + + + . + + + + % > , h 4 i j k l m n 8 0 [ & % % % % * o 1 p q r s t j u v 3 w > % + + + + + . + + + + + + + + . ",
"        + + + + + + + . . + + + > ) x y z A B C D E F d G o & % % & { [ H I J K L M N s O P ( Q + + + + + + . . . + + + + + + . ",
"    . . + + + + + + + + + + + + + ( R S T U V W X Y Z `  ...* % % & ..+.@.#.$.%.V &.*.=.-.;.>.+ + + + + + + + . . . . . + .   . ",
".     . + + + + + + + + + + + + + + p ,.'.).).).).).+ !.~.a Q % % Q } {.].. ).).).).).^./.(.+ + + + + + + + + . . . . .         ",
".     . + + + . . . + + + + + + + + . . + ).).).).).+ + p ( > + + > } {.. + ).).).).).).  + + + + + + + + + + + + + + .         ",
". .   + . + + . . . . + + + + + + + . + + ).).).).).+ + + + + + + + + . + + ).).).).).. . . + + + + + + + + + + + + +   @ @ @   ",
".           . . . . + + + +     + + . . + + ).).).+ + + + + + + + + . . + + . ).).).).+ + + + + + + + + + + + + + . +       . . ",
". . +     . . .       + + +     + + + . . + + + + + + + + + + + + . . + + + . + + + + + + + + + + + + + + + + + + . . + + . . . ",
". . + @   .             + + +   . . . . . . . . + + . . .     + . . + @     + +     + + + + + + + + + + + + + . . . . . .     . ",
". . . @ @   .     . . . .   + +   + + +   . . .   + + + + . . . . . . @ @ + +     . . + + + + + + + + + + + . .     .     . . . ",
".       . .         . .         + + .       . . . . .   + + + + + + + + + +         . . + + + + + + + +     . . . . .     . . . ",
".       . .         . . @       . .               . .     . . . + +     . .         . . @       + + +             . .     . . . ",
"    . . + + @ @ @   . .   @ @   .                   . . .           . . + + @ @ @   . .   @ @   .                   . . .       ",
"    . . + + + + . . . . . . . .     . . . @ @ @   . . . .           . . + + + + . . . . . . . .     . . . @ @ @   . . . .       "};
