/* XPM */
static char * azazel_xpm[] = {
"64 64 14 1",
" 	c #2A2628",
".	c #241F21",
"+	c #1D191B",
"@	c #322E30",
"#	c #000000",
"$	c #080000",
"%	c #252525",
"&	c #2E2E2E",
"*	c #790000",
"=	c #FFFFFF",
"-	c #111111",
";	c #4E0000",
">	c #393939",
",	c #262626",
"  ....    .       ....       .    ....    .       ....       .  ",
"  .  .   ..       ..++   .   .    .  .   ..       ..++   .   .  ",
"...  .@     ..++  ++++++.    +++++++++@     ....  ++++++.    +  ",
"  .  .@@@   ++++++ ++++++..+++++  .  ++@@  +++++   + .. .    +++",
"  ........ ..+++@+...++++.+++++.  ....++..++ .++++@+...++ @@ ++.",
"  +  ..   ..++++......+..++++++   +++..+++++..++.+++...++...+++ ",
" @+   .  +.+++++..+++...+++++++  +++++.++++++.++..++....++ ++@  ",
"@@+    .....++++..+++++++++++++++...+++...+++++++..++.+++++ @@..",
"..++.   +...+++++++++++++++++++++++..+..+#++++++++....++++@@@ ..",
"   ++++.+..+++++++++++++++++++++++++++++.##++++++++..+++++.    .",
"   +++..+..++++++++++++++++++++++++++++++###++++++++...++++     ",
" @@+++.++..+++++++++++++...++++++++++++++###+++++++++++...++.  .",
"@@ .......+++++++++++++..++++++++++++++++####+++++++++++..+++  .",
".. .....++++++++++++++..+++++++++++++++++####+++++++++++++++++ .",
".. ..+++++++++++++++++++++++++++++++++++#####++++++++++++++++++.",
".+++++++++++++++++++++##++++++++++++++++#####+++++++++++++++++ .",
".+++++++++++++++++.++####++++++++++++++######+++++++++++++++  ..",
".++.++++++++++++++++######++++++++++.########+++++++++++++++  ..",
"  ++++++.++++++++++########+$$$$$$$$#########+++++++++++++++..+.",
"  ++++.+++++++++++#########$##$$#$#$$#######+++++++++++.......+.",
"  .++..++++++++++++#######$##########$######+++++++++++.+++... .",
".  .+..+++++++++++++####$###################+++++++++++++++++.  ",
".  .+.+++++++++++++++##$#########%######$##+++++++++++++++...   ",
".. ++++++.+++++++++++############&%########+++++++++++++++...@@ ",
".  ....+..++++++++++$$##########%&&%######$$++++++++++++++..+ ..",
"......++.+++++++++++$$##########&&&&%######$++++++++.++++...+...",
"...+.++++++++++++++$$####%#####%&&&&&&%####$$+++..  .+++...++  .",
"..+..++++++++++++++$####%&####%&&&&&&&&&&%##$+++....++++...+ ...",
". +..+++++++++++++$####%&####%&&&&&&&&&&&&&%$$++..++++++.+++ ...",
". +.++++++++++++++$###%**###%&&&&&&&%****%&%$$+++.++++++++++ ...",
"  .++++++++++++.++$$%%*=###*&&&&&&&&*==***&%$$++++++++++++++.   ",
"  .++++++++++++..+$$%%*==***&&&&&&&&*==***%%$$++++++++++++++.   ",
"  .+++++++++++++.+$$-%******&&$$$$&&******%-$$++++++++++..++ .  ",
"  .+++++++++++++..+$$%;****;&$$$$$$&;****;%$$+++++++++++...+ .  ",
"...++++++++++++++..$$-%;;;;%&$====$&%;;;;%-$$+.+++++++++++.  +  ",
"  .+++++++++++++++$$$$%&&&%&&$$$$$$&&%&&&%$$$$.++++++++++++. +++",
"  .+++++++++++++++$$$$-&&&&&&&&&&&&&&&&&&-$$$$+++++++++++++..++.",
"  +++++++++ .++++$$>,$$%&&&&&&&&&&&&&&&&%$$,>$$++++++++++++..++ ",
" @+.++++++  ..+++$$>,>$$%&%&&&&&&&&&&%&%$$>,>$$+++++++++++..+@  ",
"@@+..+++++...+++$$>,,>,$$$%%&&&&&&&&%%$$$,>,,>$$++++++..... @@..",
"..++...+++..++++$$>,,>,>$$$$-%%%%%%-$$$$>,>,,>$$+++++++...+@@ ..",
"   ++++++..++++$$>,,>,,>,$$$$$$$$$$$$$$,>,,>,,>$$+++++++++..   .",
"   .+++++++++++$$>,,>,,$$$%&$$$$$$$$&%$$$,,>,,>$$+++++++++..    ",
" @@ ++++++++++$$>,$,>,$$$%&&%%%%%%%%&&%$$$,>,$,>$$++++++++...  .",
"@@  ++++++++++$$>$$$>$$$$%&$%&&&&&&%$&%$$$$>$$$>$$++++++++++.  .",
"..  +++++++++$$>$$+$$$+$$%&$&&&&&&&&$&%$$.$$$+$$>$$+++++++++.. .",
".. ++++++++++$$$$++.$+++$$$$&&%$$%&&$$$$+.+$+++$$$$+++++++++.  .",
".++++++++++++$$$+++++++++$$$&&&$$%&&$$$+++++++++$$$+++...+++.  .",
".++++++++++++$$+++++++++++$$$&&$$%&$$$+++++++++++$$++++++++++ ..",
".+ ++++++++++++++++++++++++$$$$$$$$$$++++++++++++++++++++++++ ..",
"   +++++++.+++++++++++++++++$$$++$$$++++++++++++++++++.++++++++.",
"    +++++++..+++++++++++++++++++++++++++++++++++++++++...++++++.",
"  ..+++++++++++++++++++++++++++++++++++++..++++++++++++.....+. .",
".  .+++++++++++++++.+++++++++++++++++.+++.+++++++++++++.....    ",
".  .+++...++++++++..+++++.++++++++++.+++++.  ++++++++++++++.    ",
".. +.++....+++++++.+++++..+++++++++.++.++++...+++++++++++++ @@@ ",
".     ....++++  ++..++++++++++++++..++.++++++++++++++++++.+   ..",
"..+  ...   +++  +++..++++++++++++..+++.++++++++++++++++++..++...",
"..+@ .      +++ ........++...  +..+@  ++  +++++++++++++......  .",
"...@@ .  .... ++ +++ ... ++++......@@++  ..+++++++++++..  .  ...",
".   ..    ..    ++.   ..... ++++++++++    ..++++++++  .....  ...",
".   ..    ..@   ..       ..  ...++  ..    ..@   +++      ..  ...",
"  ..++@@@ .. @@ .         ...     ..++@@@ .. @@ .         ...   ",
"  ..++++........  ...@@@ ....     ..++++........  ...@@@ ....   "};
