/* XPM */
static char * azazelondoor_xpm[] = {
"64 64 27 1",
" 	c #2A2628",
".	c #241F21",
"+	c #1D191B",
"@	c #322E30",
"#	c #23201D",
"$	c #1B1916",
"%	c #555145",
"&	c #2E2A25",
"*	c #3C3129",
"=	c #000000",
"-	c #454135",
";	c #191919",
">	c #333333",
",	c #070707",
"'	c #151211",
")	c #0C0B0A",
"!	c #080000",
"~	c #252525",
"{	c #2E2E2E",
"]	c #790000",
"^	c #FFFFFF",
"/	c #111111",
"(	c #4E0000",
"_	c #140E0E",
":	c #393939",
"<	c #262626",
"[	c #414141",
"  ....    .       ....       .    ....    .       ....       .  ",
"  .  .   ..       ..++   .   .    .  .   ..       ..++   .   .  ",
"...  .@     ..++  ++++++.    +++++++++@     ....  ++++++.    +  ",
"  .  .@@@   ++++++ ++++++..+++++  .  ++@@  +++++   + .. .    +++",
"  ........ ..+++@+...++++.+++++.  ....++..++ .++++@+...++ @@ ++.",
"  +  ..   ..++++......+..++++++   +++..+++++..++.+++...++...+++ ",
" @+   .  +.+++++..+++...+++++++  +++++.++++++.++..++....++ ++@  ",
"@@+    .....++################################$$$$$$+.+++++ @@..",
"..++.   +...++$%&&&&&&#&*&&&****#***&&&&&=&*******%$..++++@@@ ..",
"   ++++.+..+++$%*&&&**#*********#********==*******%$.+++++.    .",
"   +++..+..+++$%%%%%%%$%%%%%----#---%%%%%===--****%$...++++     ",
" @@+++.++..+++$&&&&&&&;;&&&&&&&;;&&&&&&&;===&&&&**%$+++...++.  .",
"@@ .......++++$&&&#&;;>>;;&&#;;>>;;&&&;;>====&&&**%$++++..+++  .",
".. .....++++++$&&&#&#;>>;##&#&;>>;&#&##;>====&&***%$++++++++++ .",
".. ..+++++++++$######;>>;#####;>>;#####;=====#&***%$+++++++++++.",
".+++++++++++++$$$$$$$;==;$$$$$;>>;$$$$$;=====$&***%$++++++++++ .",
".+++++++++++++,,,,'''====,,,,,;>>;'',,,======,&***%$++++++++  ..",
".++.++++++++++,,,,,'======),,,;>>;,,,========,&***%$++++++++  ..",
"  ++++++.++#######,========'!!!!!!!!=========,&*&*%$++++++++..+.",
"  ++++.++++#**&&##=========!==!!=!=!!=======,,&*&*%$+++.......+.",
"  .++..++++#**&*&##=======!==========!======,,&&&*%$+++.+++... .",
".  .+..++++#**&**&#,====!===================',&&&*%$+++++++++.  ",
".  .+.+++++#**&**&&,#==!=========~======!=='),&&&*%$++++++...   ",
".. ++++++.+#**&**&&,#============{~========)))&&&*%$++++++...@@ ",
".  ....+..+#**&**&&,!!==========~{{~======!!),&***%$++++++..+ ..",
"......++.++#**&**&&,!!=========={{{{~======!,,####&$.++++...+...",
"...+.++++++#**&**&&!!====~=====~{{{{{{~====!!,&***%$.+++...++  .",
"..+..++++++#*****&&!====~{====~{{{{{{{{{{~==!)&***%$++++...+ ...",
". +..++++++#*****&!====~{====~{{{{{{{{{{{{{~!!&***%$++++.+++ ...",
". +.+++++++#****&&!===~]]===~{{{{{{{~]]]]~{~!!&***%$++++++++ ...",
"  .++++++++#****&&!!~~]^===]{{{{{{{{]^^]]]{~!!&***%$++++++++.   ",
"  .++++++++#***&&&!!~~]^^]]]{{{{{{{{]^^]]]~~!!&***%$++++++++.   ",
"  .++++++++#***&&&!!/~]]]]]]{{!!!!{{]]]]]]~/!!&***%$++++..++ .  ",
"  .++++++++#***&&&&!!~(]]]]({!!!!!!{(]]]](~!!,&***%$++++...+ .  ",
"...++++++++#****&&)!!/~((((~{!^^^^!{~((((~/!!_&***%$++++++.  +  ",
"  .++++++++#****&&!!!!~{{{~{{!!!!!!{{~{{{~!!!!####&$+++++++. +++",
"  .++++++++#****&&!!!!/{{{{{{{{{{{{{{{{{{/!!!!&&**%$+++++++..++.",
"  +++++++++#****&!!:<!!~{{{{{{{{{{{{{{{{~!!<:!!&**%$+++++++..++ ",
" @+.++++++ #%*&*&!!:<:!!~{~{{{{{{{{{{~{~!!:<:!!&**%$++++++..+@  ",
"@@+..+++++.#%*&&!!:<<:<!!!~~{{{{{{{{~~!!!<:<<:!!&*%$++..... @@..",
"..++...+++.#%*&&!!:<<:<:!!!!/~~~~~~/!!!!:<:<<:!!&*%$+++...+@@ ..",
"   ++++++..#%*&!!:<<:<<:<!!!!!!!!!!!!!!<:<<:<<:!!*%$++++++..   .",
"   .+++++++#%*&!!:<<:<<!!!~{!!!!!!!!{~!!!<<:<<:!!*%$++++++..    ",
" @@ +++++++#%*!!:<!<:<!!!~{{~~~~~~~~{{~!!!<:<!<:!!%$++++++...  .",
"@@  +++++++#%*!!:!!!:!!!!~{!~{{{{{{~!{~!!!!:!!!:!!%$++++++++.  .",
"..  +++++++#%!!:!!#!!![!!~{!{{{{{{{{!{~!![!!!_!!:!!$++++++++.. .",
".. ++++++++#%!!!!##,!;[>!!!!{{~!!~{{!!!![>;!__&!!!!$++++++++.  .",
".++++++++++##!!!###,#;[>;!!!{{{!!~{{!!!;[>;,__&&!!!$++...+++.  .",
".++++++++++++!!###########!!!{{!!~{!!!########&&*!!$+++++++++ ..",
".+ +++++++++++$&&&&&&&#&*&&!!!!!!!!!!&&&&&&***&&**%$+++++++++ ..",
"   +++++++.+++$%*&&&**#*****!!!*#!!!**********&&**%$++.++++++++.",
"    +++++++..+$%%%%%%%$%%%%%----#---%%%%%-----%%%%%$++...++++++.",
"  ..++++++++++$&&&&&&&$&&&&&&&&&$&&&&&&&&&&&&&&&&&#$+++.....+. .",
".  .++++++++++$&&&#&&&$&&&&&#&&&$&&&&&&#&&&&&&&&&&#$+++.....    ",
".  .+++...++++$&&&#&##$####&#&&&$#&#&######&&&&&&&#$+++++++.    ",
".. +.++....+++$#######$#########$##################$+++++++ @@@ ",
".     ....++++$$$$$$$$$$$$$$$$$$$$$$$$$$$$$$$$$$$$$$+++++.+   ..",
"..+  ...   +++  +++..++++++++++++..+++.++++++++++++++++++..++...",
"..+@ .      +++ ........++...  +..+@  ++  +++++++++++++......  .",
"...@@ .  .... ++ +++ ... ++++......@@++  ..+++++++++++..  .  ...",
".   ..    ..    ++.   ..... ++++++++++    ..++++++++  .....  ...",
".   ..    ..@   ..       ..  ...++  ..    ..@   +++      ..  ...",
"  ..++@@@ .. @@ .         ...     ..++@@@ .. @@ .         ...   ",
"  ..++++........  ...@@@ ....     ..++++........  ...@@@ ....   "};
