/* XPM */
static char * doorclose_xpm[] = {
"64 64 20 1",
" 	c #191919",
".	c #020202",
"+	c #2E2E2E",
"@	c #3D3D3D",
"#	c #212121",
"$	c #000000",
"%	c #0D0D0D",
"&	c #241F21",
"*	c #1D191B",
"=	c #1B1916",
"-	c #2E2A25",
";	c #23201D",
">	c #3C3129",
",	c #555145",
"'	c #070707",
")	c #151211",
"!	c #0C0B0A",
"~	c #140E0E",
"{	c #2A2628",
"]	c #454135",
"        .                                              .        ",
"++++++++.@@@++@@@@+++@@@@@@@@@@@@@@@@@@@@@@@@@+++@@@@++.++++++++",
"#######+.##############################################.+#######",
"########.                                              .########",
"$$$$$$$$%##+++++++++++++++++++++++++++++++++++++++++++#%$$$$$$$$",
"$%%%%%%%$    ########################################  $%%%%%%%$",
"$%  %  %$ ########## ############### ##############    $%  %  %$",
"$% #%   $  #########   $$  #########   $$  ##########  $   %# %$",
"$+##%#  $   #########$$##$$  ########$$##$$  ########  $  #%##+$",
"$+####  $   ######### $##$ ########## $##$ #########   $  ####+$",
"$+######$   ##++++++  $##$  ++++++++  $##$  ++++++#    $######+$",
"$#######$$$$$$$$$$$$$$$##$$$$$$$$$$$$$$##$$$$$$$$$$$$$$$#######$",
"$#######$&****=---;---$##$--;---=-----$##$------>>,=***$#######$",
"$ ######$*****=---;-;;$##$;-;---=;-;-;$##$;---->>>,=***$###### $",
"$ #####+$*****=;;;;;;;$##$;;;;;;=;;;;;$##$;;;;->>>,=***$+##### $",
"$ #####+$*****========$#+$============$#+$====->>>,=***$+##### $",
"$ #####+$*****''''))))$#+$''''))))))''$#+$''''->>>,=***$+##### $",
"$ ######$*****''''')))$#+$!'''''''''''$#+$!!!'->>>,=***$###### $",
"$#######$**;;;;;;;'!!)$#+$'))))))!')))$#+$!!''->->,=***$#######$",
"$%#### #$**;>>--;;;'!!$#+$)))))))!''))$#+$''''->->,=***$# ####%$",
"$%%###  $**;>>->-;;'''$++$)))))!!!''''$++$))''--->,=***$  ###%%$",
"$+##### $**;>>->>-;'==$++$''!!!!!'''!!$++$)))'--->,=***$ #####+$",
"$+##### $**;>>->>--';;$++$''!!!''!!!!!$++$))!'--->,=***$ #####+$",
"$+##### $&*;>>->>--';;$++$'''''!!!!!!!$++$)!!!--->,=***$ #####+$",
"$+####  $&*;>>->>--';;$++$===='''''!!!$++$!!!'->>>,=***$  ####+$",
"$+####  $**;>>->>--';;$++$====='''''''$++$'''';;;;-=&**$  ####+$",
"$##### %$**;>>->>--!-;$++$==;=='''''''$++$!!!'->>>,=&**$% #####$",
"$#####%%$**;>>>>>--!-;$++$;;;==!'===='$++$!!!!->>>,=***$%%#####$",
"$ #####%$**;>>>>>--!-;$++$;;;==!'===='$++$!!!!->>>,=***$%##### $",
"$ #####%$**;>>>>---!--$++$;;;==!=====!$++$''!!->>>,=***$%##### $",
"$ #####+$**;>>>>---!--$++$!;;==!=====!$++$~'''->>>,=***$+##### $",
"$ #####+$**;>>>----'--$++$!;;==!=====!$++$~'''->>>,=***$+##### $",
"$  ####+$**;>>>----'--$++$!;;==!====='$++$~!''->>>,=***$+####  $",
"$  ####+$**;>>>----'--$++$!;;==!;===='$++$~!''->>>,=***$+####  $",
"$ #####+$**;>>>>--!!--$++$!;;==!;===='$++$~!~~->>>,=***$+##### $",
"$ ######$**;>>>>--!!--$++$;;;==!;===='$++$~!~~;;;;-=***$###### $",
"$#######$**;>>>>--!!--$++$;;;==!;===='$++$~!~~-->>,=***$#######$",
"$###### $**;>>>>--!!--$++$;;===!;===='$++$~!~~-->>,=***$ ######$",
"$+##### $*{;,>->--!!-;$++$;;===!;===='$++$~'~~-->>,=***$ #####+$",
"$+##### $*&;,>----!!-;$++$;;===';===='$++$~'~~--->,=**&$ #####+$",
"$###### $*&;,>----!!;;$++$;;===';===='$++$~'~~--->,=***$ ######$",
"$#######$&&;,>----;!;;$++$;;==='====='$++$~'~~--->,=***$#######$",
"$%#####+$**;,>----;!;;$+#$;;==='====='$+#$~'~~-->>,=***$+#####%$",
"$%%####+$**;,>---;;!;;$+#$;;==='~===='$+#$~'~~-->>,=***$+####%%$",
"$%#####+$**;,>;;;;;!;;$+#$====='~===='$+#$~'~~-->>,=***$+#####%$",
"$%#####+$**;,>;;;;;!;;$##$===~~'~~==~'$##$~'~~-->>,=***$+#####%$",
"$######+$**;,,;;;;;';;$##$=~~~~'~~~~~'$##$~'~~-->>,=***$+######$",
"$#######$**;;;;;;;;';;$##$=~~~~'~~~~~'$##$~'~~-->>]=**&$#######$",
"$#######$*****=;;;;;;;$##$;;;;;;;;;;;;$##$;;;;-->>,=***$#######$",
"$#######$*****=-------$##$-->>>>;>>>--$##$->>>-->>,=***$#######$",
"$  #### $*&***=,>--->>$##$>>>>>>;>>>>>$##$>>>>-->>,=**&$ ####  $",
"$  #### $**&&*=,,,,,,,$##$,,]]]];]]],,$##$]]]],,,,,=**&$ ####  $",
"$   ### $*****=-------$##$------=-----$##$--------;=***$ ###   $",
"$$$$$$$$$*****=---;---$##$--;---=-----$##$--------;=***$$$$$$$$$",
"$%%%%%%%$&****=---;-;;$%%$;-;---=;-;-;$%%$;-------;=***$%%%%%%%$",
"$       $&&***=;;;;;;;$%%$;;;;;;=;;;;;$%%$;;;;;;;;;=***$       $",
"$       $&****========$$$$============$$$$==========***$       $",
"$       $$$$$$$$$$$$$$$$$$$$$$$$$$$$$$$$$$$$$$$$$$$$$$$$       $",
"$++@@@@+$%%%%%%%%%%%%%%$$%%%%%%%%%%%%%%$$%%%%%%%%%%%%%%$+@@@@++$",
"$#######$%%%%      %%%%%               %%%%%%         %$#######$",
"$       $%                                  %%        %$       $",
"$+++++++$%                                            %$+++++++$",
"$+     +$%                                            %$+     +$",
"$+     ++++++++++++++++++++++++++++++++++++++++++++++++++     +$"};
