/* XPM */
static char * exit_xpm[] = {
"64 64 14 1",
" 	c #2A2628",
".	c #241F21",
"+	c #1D191B",
"@	c #322E30",
"#	c #23201D",
"$	c #1B1916",
"%	c #555145",
"&	c #2E2A25",
"*	c #3C3129",
"=	c #454135",
"-	c #070707",
";	c #151211",
">	c #0C0B0A",
",	c #140E0E",
"  ....    .       ....       .    ....    .       ....       .  ",
"  .  .   ..       ..++   .   .    .  .   ..       ..++   .   .  ",
"...  .@     ..++  ++++++.    +++++++++@     ....  ++++++.    +  ",
"  .  .@@@   ++++++ ++++++..+++++  .  ++@@  +++++   + .. .    +++",
"  ........ ..+++@+...++++.+++++.  ....++..++ .++++@+...++ @@ ++.",
"  +  ..   ..++++......+..++++++   +++..+++++..++.+++...++...+++ ",
" @+   .  +.+++++..+++...+++++++  +++++.++++++.++..++....++ ++@  ",
"@@+    .....++################################$$$$$$+.+++++ @@..",
"..++.   +...++$%&&&&&&#&*&&&****#***&&&&&&&*******%$..++++@@@ ..",
"   ++++.+..+++$%*&&&**#*********#*****************%$.+++++.    .",
"   +++..+..+++$%%%%%%%$%%%%%====#===%%%%%=====****%$...++++     ",
" @@+++.++..+++$&&&&&&&$&&&&&&&&&$&&&&&&&&&&&&&&&**%$+++...++.  .",
"@@ .......++++$&&&#&&&$&&&&&#&&&$&&&&&&#&&&&&&&&**%$++++..+++  .",
".. .....++++++$&&&#&##$####&#&&&$#&#&######&&&&***%$++++++++++ .",
".. ..+++++++++$#######$#########$#############&***%$+++++++++++.",
".+++++++++++++$$$$$$$$$$$$$$$$$$$$$$$$$$$$$$$$&***%$++++++++++ .",
".+++++++++++++----;;;;;;;-----;;;;;;---->>----&***%$++++++++  ..",
".++.++++++++++-----;;;;;;->------------;;>>>>-&***%$++++++++  ..",
"  ++++++.++#######->>;;;>>-;;;;;;>-;;;;;>>>>--&*&*%$++++++++..+.",
"  ++++.++++#**&&###->>>>--;;;;;;;>--;;;>>-----&*&*%$+++.......+.",
"  .++..++++#**&*&##-------;;;;;>>>--------;;--&&&*%$+++.+++... .",
".  .+..++++#**&**&#-$$$$---->>>>>--->>>--;;;;-&&&*%$+++++++++.  ",
".  .+.+++++#**&**&&-###$$--->>>-->>>>>>-->;;>-&&&*%$++++++...   ",
".. ++++++.+#**&**&&-####$------>>>>>>>>-->;>>>&&&*%$++++++...@@ ",
".  ....+..+#**&**&&-####$-$$$$----->>>>>->>>>-&***%$++++++..+ ..",
"......++.++#**&**&&-####$-$$$$$------->>------####&$.++++...+...",
"...+.++++++#**&**&&>&###$-$$#$$----------->>>-&***%$.+++...++  .",
"..+..++++++#*****&&>&####>###$$>-$$$$----->>>>&***%$++++...+ ...",
". +..++++++#*****&&>&####>###$$>-$$$$->>-->>>>&***%$++++.+++ ...",
". +.+++++++#****&&&>&&###>###$$>$$$$$>>----->>&***%$++++++++ ...",
"  .++++++++#****&&&>&&###>>##$$>$$$$$>,,,,,---&***%$++++++++.   ",
"  .++++++++#***&&&&-&&###>>##$$>$$$$$>,,,,,---&***%$++++++++.   ",
"  .++++++++#***&&&&-&&###>>##$$>$$$$$-,,,,,>--&***%$++++..++ .  ",
"  .++++++++#***&&&&-&&###>>##$$>#$$$$-$,,,,>--&***%$++++...+ .  ",
"...++++++++#****&&>>&&###>>##$$>#$$$$-$,,,,>,,&***%$++++++.  +  ",
"  .++++++++#****&&>>&&###>###$$>#$$$$-$,,,,>,,####&$+++++++. +++",
"  .++++++++#****&&>>&&###>###$$>#$$$$-$$,,,>,,&&**%$+++++++..++.",
"  +++++++++#****&&>>&&###>##$$$>#$$$$-$$,,,>,,&&**%$+++++++..++ ",
" @+.++++++ #%*&*&&>>&####>##$$$>#$$$$-$$,,,-,,&&**%$++++++..+@  ",
"@@+..+++++.#%*&&&&>>&####>##$$$-#$$$$-$$,,,-,,&&&*%$++..... @@..",
"..++...+++.#%*&&&&>>#####-##$$$-#$$$$-$$,,,-,,&&&*%$+++...+@@ ..",
"   ++++++..#%*&&&&#>#####-##$$$-$$$$$-$$,,,-,,&&&*%$++++++..   .",
"   .+++++++#%*&&&&#>#####-##$$$-$$$$$-$$,,,-,,&&**%$++++++..    ",
" @@ +++++++#%*&&&##>#####-##$$$-,$$$$-$$,,,-,,&&**%$++++++...  .",
"@@  +++++++#%*#####>#####-$$$$$-,$$$$-$,,,,-,,&&**%$++++++++.  .",
"..  +++++++#%*#####>#####-$$$,,-,,$$,-$,,,,-,,&&**%$++++++++.. .",
".. ++++++++#%%#####-#####-$,,,,-,,,,,-,,,,,-,,&&**%$++++++++.  .",
".++++++++++########-#####-$,,,,-,,,,,-,,,,,-,,&&**=$++...+++.  .",
".+++++++++++++$###############################&&**%$+++++++++ ..",
".+ +++++++++++$&&&&&&&#&*&&&****#***&&&&&&&***&&**%$+++++++++ ..",
"   +++++++.+++$%*&&&**#*********#*************&&**%$++.++++++++.",
"    +++++++..+$%%%%%%%$%%%%%====#===%%%%%=====%%%%%$++...++++++.",
"  ..++++++++++$&&&&&&&$&&&&&&&&&$&&&&&&&&&&&&&&&&&#$+++.....+. .",
".  .++++++++++$&&&#&&&$&&&&&#&&&$&&&&&&#&&&&&&&&&&#$+++.....    ",
".  .+++...++++$&&&#&##$####&#&&&$#&#&######&&&&&&&#$+++++++.    ",
".. +.++....+++$#######$#########$##################$+++++++ @@@ ",
".     ....++++$$$$$$$$$$$$$$$$$$$$$$$$$$$$$$$$$$$$$$+++++.+   ..",
"..+  ...   +++  +++..++++++++++++..+++.++++++++++++++++++..++...",
"..+@ .      +++ ........++...  +..+@  ++  +++++++++++++......  .",
"...@@ .  .... ++ +++ ... ++++......@@++  ..+++++++++++..  .  ...",
".   ..    ..    ++.   ..... ++++++++++    ..++++++++  .....  ...",
".   ..    ..@   ..       ..  ...++  ..    ..@   +++      ..  ...",
"  ..++@@@ .. @@ .         ...     ..++@@@ .. @@ .         ...   ",
"  ..++++........  ...@@@ ....     ..++++........  ...@@@ ....   "};
