/* XPM */
static char * wall_xpm[] = {
"64 64 4 1",
" 	c #5F5960",
".	c #232323",
"+	c #3C3C3C",
"@	c #2B2B2B",
"                        ......                            ......",
"                        ......                            ......",
"          ++              ..            ++      ++          ..  ",
"          ++              ..            ++      ++          ..  ",
"++++  ++++++++  ++++++    ..    ++++  ++++++  ++++++++++++  ..  ",
"++++  ++++++++  ++++++    ..    ++++  ++++++  ++++++++++++  ..  ",
"++++++++++@@++++++++@@@@  ..  @@@@++++++++++++++++++++@@++++..++",
"++++++++++@@++++++++@@@@  ..  @@@@++++++++++++++++++++@@++++..++",
"@@@@@@@@@@@@@@@@@@@@@@@@@@..@@@@@@@@@@@@++++@@@@@@@@@@@@@@@@..@@",
"@@@@@@@@@@@@@@@@@@@@@@@@@@..@@@@@@@@@@@@++++@@@@@@@@@@@@@@@@..@@",
"@@@@@@@@@@@@@@@@@@@@@@@@......@@@@@@@@@@@@@@@@@@@@@@@@@@@@......",
"@@@@@@@@@@@@@@@@@@@@@@@@......@@@@@@@@@@@@@@@@@@@@@@@@@@@@......",
"................................................................",
"................................................................",
"      ......                              ......                ",
"      ......                              ......                ",
"        ..                    ++++          ..            ++++  ",
"        ..                    ++++          ..            ++++  ",
"  ++    ..    ++++  ++++++  ++++++++  ++    ..    ++  ++++++++++",
"  ++    ..    ++++  ++++++  ++++++++  ++    ..    ++  ++++++++++",
"++++@@  ..  @@++++++++@@++++++@@@@@@++++@@  ..  @@++++++++@@@@++",
"++++@@  ..  @@++++++++@@++++++@@@@@@++++@@  ..  @@++++++++@@@@++",
"++@@@@@@..@@@@@@++++@@@@@@++++++++++++@@@@@@..@@@@@@++++@@@@++++",
"++@@@@@@..@@@@@@++++@@@@@@++++++++++++@@@@@@..@@@@@@++++@@@@++++",
"@@@@@@@@..@@@@@@@@@@@@@@@@@@@@@@++++@@@@@@@@..@@@@@@@@@@@@@@@@@@",
"@@@@@@@@..@@@@@@@@@@@@@@@@@@@@@@++++@@@@@@@@..@@@@@@@@@@@@@@@@@@",
"@@@@@@......@@@@@@@@@@@@@@@@@@@@@@@@@@@@@@......@@@@@@@@@@@@@@@@",
"@@@@@@......@@@@@@@@@@@@@@@@@@@@@@@@@@@@@@......@@@@@@@@@@@@@@@@",
"................................................................",
"................................................................",
"                    ......                        ......        ",
"                    ......                        ......        ",
"              ++      ..            ++              ..      ++  ",
"              ++      ..            ++              ..      ++  ",
"++  ++++++  ++++++    ..    ++++  ++++++++  ++++    ..    ++++++",
"++  ++++++  ++++++    ..    ++++  ++++++++  ++++    ..    ++++++",
"++++++++++@@++++++++  ..  ++++++++++@@++++@@++++++  ..  ++++@@++",
"++++++++++@@++++++++  ..  ++++++++++@@++++@@++++++  ..  ++++@@++",
"++++@@@@++++@@++++++@@..@@++++++++@@@@++++++@@++++@@..@@++++++@@",
"++++@@@@++++@@++++++@@..@@++++++++@@@@++++++@@++++@@..@@++++++@@",
"++@@@@++++++@@@@++@@@@..@@@@++@@@@@@++++@@++++++@@@@..@@@@++++++",
"++@@@@++++++@@@@++@@@@..@@@@++@@@@@@++++@@++++++@@@@..@@@@++++++",
"@@@@@@@@++@@@@@@@@@@@@..@@@@@@@@@@@@@@@@@@@@++@@@@@@..@@@@@@++@@",
"@@@@@@@@++@@@@@@@@@@@@..@@@@@@@@@@@@@@@@@@@@++@@@@@@..@@@@@@++@@",
"@@@@@@@@@@@@@@@@@@@@......@@@@@@@@@@@@@@@@@@@@@@@@......@@@@@@@@",
"@@@@@@@@@@@@@@@@@@@@......@@@@@@@@@@@@@@@@@@@@@@@@......@@@@@@@@",
"................................................................",
"................................................................",
"          ......                        ......                  ",
"          ......                        ......                  ",
"            ..            ++      ++      ..                ++  ",
"            ..            ++      ++      ..                ++  ",
"++  ++++    ..    ++++  ++++++  ++++++    ..    ++++  ++++++++++",
"++  ++++    ..    ++++  ++++++  ++++++    ..    ++++  ++++++++++",
"@@++++++@@  ..  @@++++++++++++@@++++++@@  ..  @@++++++++++++@@++",
"@@++++++@@  ..  @@++++++++++++@@++++++@@  ..  @@++++++++++++@@++",
"++++++@@@@@@..@@@@@@++@@@@++++++++++@@@@@@..@@@@@@++++++++@@@@++",
"++++++@@@@@@..@@@@@@++@@@@++++++++++@@@@@@..@@@@@@++++++++@@@@++",
"@@++@@@@@@@@..@@@@@@@@@@@@@@@@@@++@@@@@@@@..@@@@@@@@++@@@@@@@@@@",
"@@++@@@@@@@@..@@@@@@@@@@@@@@@@@@++@@@@@@@@..@@@@@@@@++@@@@@@@@@@",
"@@@@@@@@@@......@@@@@@@@@@@@@@@@@@@@@@@@......@@@@@@@@@@@@@@@@@@",
"@@@@@@@@@@......@@@@@@@@@@@@@@@@@@@@@@@@......@@@@@@@@@@@@@@@@@@",
"................................................................",
"................................................................"};
